<mxfile host="app.diagrams.net" agent="Mozilla/5.0 (X11; Linux x86_64; rv:135.0) Gecko/20100101 Firefox/135.0" version="24.7.17">
  <diagram name="Page-1" id="a7904f86-f2b4-8e86-fa97-74104820619b">
    <mxGraphModel dx="1434" dy="792" grid="1" gridSize="10" guides="1" tooltips="1" connect="1" arrows="1" fold="1" page="1" pageScale="1" pageWidth="1169" pageHeight="827" background="none" math="0" shadow="0">
      <root>
        <mxCell id="0" />
        <mxCell id="1" parent="0" />
        <mxCell id="1aYPySXUmk-SA74niEho-6" style="edgeStyle=orthogonalEdgeStyle;shape=connector;rounded=0;orthogonalLoop=1;jettySize=auto;html=1;entryX=0;entryY=0.5;entryDx=0;entryDy=0;strokeColor=default;align=center;verticalAlign=middle;fontFamily=Helvetica;fontSize=11;fontColor=default;labelBackgroundColor=default;endArrow=none;endFill=0;" edge="1" parent="1" source="24794b860abc3c2d-25" target="1aYPySXUmk-SA74niEho-2">
          <mxGeometry relative="1" as="geometry" />
        </mxCell>
        <mxCell id="1aYPySXUmk-SA74niEho-7" value="1" style="edgeLabel;html=1;align=center;verticalAlign=middle;resizable=0;points=[];fontFamily=Helvetica;fontSize=11;fontColor=default;labelBackgroundColor=default;" vertex="1" connectable="0" parent="1aYPySXUmk-SA74niEho-6">
          <mxGeometry x="-0.8167" y="2" relative="1" as="geometry">
            <mxPoint y="-5" as="offset" />
          </mxGeometry>
        </mxCell>
        <mxCell id="1aYPySXUmk-SA74niEho-10" value="1" style="edgeLabel;html=1;align=center;verticalAlign=middle;resizable=0;points=[];fontFamily=Helvetica;fontSize=11;fontColor=default;labelBackgroundColor=default;" vertex="1" connectable="0" parent="1aYPySXUmk-SA74niEho-6">
          <mxGeometry x="0.7583" y="4" relative="1" as="geometry">
            <mxPoint y="-4" as="offset" />
          </mxGeometry>
        </mxCell>
        <mxCell id="24794b860abc3c2d-25" value="&lt;p style=&quot;margin: 0px ; margin-top: 4px ; text-align: center ; text-decoration: underline&quot;&gt;&lt;b&gt;Chatbot&lt;/b&gt;&lt;/p&gt;&lt;hr&gt;&lt;p style=&quot;margin: 0px ; margin-left: 8px&quot;&gt;id (PK)&lt;/p&gt;&lt;p style=&quot;margin: 0px ; margin-left: 8px&quot;&gt;name&lt;/p&gt;&lt;p style=&quot;margin: 0px ; margin-left: 8px&quot;&gt;promptID (FK)&lt;/p&gt;&lt;p style=&quot;margin: 0px ; margin-left: 8px&quot;&gt;websiteOwnerID (FK)&lt;/p&gt;" style="verticalAlign=top;align=left;overflow=fill;fontSize=12;fontFamily=Helvetica;html=1;rounded=0;shadow=0;comic=0;labelBackgroundColor=none;strokeWidth=1" parent="1" vertex="1">
          <mxGeometry x="515" y="90" width="140" height="150" as="geometry" />
        </mxCell>
        <mxCell id="1aYPySXUmk-SA74niEho-3" style="edgeStyle=orthogonalEdgeStyle;rounded=0;orthogonalLoop=1;jettySize=auto;html=1;entryX=0;entryY=0.5;entryDx=0;entryDy=0;endArrow=none;endFill=0;" edge="1" parent="1" source="1aYPySXUmk-SA74niEho-1" target="24794b860abc3c2d-25">
          <mxGeometry relative="1" as="geometry" />
        </mxCell>
        <mxCell id="1aYPySXUmk-SA74niEho-4" value="1" style="edgeLabel;html=1;align=center;verticalAlign=middle;resizable=0;points=[];fontFamily=Helvetica;fontSize=11;fontColor=default;labelBackgroundColor=default;" vertex="1" connectable="0" parent="1aYPySXUmk-SA74niEho-3">
          <mxGeometry x="-0.8083" y="1" relative="1" as="geometry">
            <mxPoint y="-7" as="offset" />
          </mxGeometry>
        </mxCell>
        <mxCell id="1aYPySXUmk-SA74niEho-5" value="n" style="edgeLabel;html=1;align=center;verticalAlign=middle;resizable=0;points=[];fontFamily=Helvetica;fontSize=11;fontColor=default;labelBackgroundColor=default;" vertex="1" connectable="0" parent="1aYPySXUmk-SA74niEho-3">
          <mxGeometry x="0.8" relative="1" as="geometry">
            <mxPoint y="-8" as="offset" />
          </mxGeometry>
        </mxCell>
        <mxCell id="1aYPySXUmk-SA74niEho-1" value="&lt;p style=&quot;margin: 0px ; margin-top: 4px ; text-align: center ; text-decoration: underline&quot;&gt;&lt;b&gt;WebsiteOwner&lt;/b&gt;&lt;/p&gt;&lt;hr&gt;&lt;p style=&quot;margin: 0px ; margin-left: 8px&quot;&gt;id (PK)&lt;/p&gt;&lt;p style=&quot;margin: 0px ; margin-left: 8px&quot;&gt;firstName&lt;/p&gt;&lt;p style=&quot;margin: 0px ; margin-left: 8px&quot;&gt;lastName&lt;/p&gt;&lt;p style=&quot;margin: 0px ; margin-left: 8px&quot;&gt;website&lt;/p&gt;" style="verticalAlign=top;align=left;overflow=fill;fontSize=12;fontFamily=Helvetica;html=1;rounded=0;shadow=0;comic=0;labelBackgroundColor=none;strokeWidth=1" vertex="1" parent="1">
          <mxGeometry x="135" y="90" width="140" height="150" as="geometry" />
        </mxCell>
        <mxCell id="1aYPySXUmk-SA74niEho-2" value="&lt;p style=&quot;margin: 0px ; margin-top: 4px ; text-align: center ; text-decoration: underline&quot;&gt;&lt;b&gt;Prompt&lt;/b&gt;&lt;/p&gt;&lt;hr&gt;&lt;p style=&quot;margin: 0px ; margin-left: 8px&quot;&gt;id (PK)&lt;/p&gt;&lt;p style=&quot;margin: 0px ; margin-left: 8px&quot;&gt;prompt&lt;/p&gt;" style="verticalAlign=top;align=left;overflow=fill;fontSize=12;fontFamily=Helvetica;html=1;rounded=0;shadow=0;comic=0;labelBackgroundColor=none;strokeWidth=1" vertex="1" parent="1">
          <mxGeometry x="895" y="90" width="140" height="150" as="geometry" />
        </mxCell>
        <mxCell id="1aYPySXUmk-SA74niEho-11" value="Prompt" style="rounded=0;whiteSpace=wrap;html=1;fontFamily=Helvetica;fontSize=11;labelBackgroundColor=none;fillColor=#f8cecc;strokeColor=#b85450;" vertex="1" parent="1">
          <mxGeometry x="940" y="384" width="120" height="60" as="geometry" />
        </mxCell>
        <mxCell id="1aYPySXUmk-SA74niEho-14" style="edgeStyle=orthogonalEdgeStyle;shape=connector;rounded=0;orthogonalLoop=1;jettySize=auto;html=1;entryX=0;entryY=0.5;entryDx=0;entryDy=0;strokeColor=default;align=center;verticalAlign=middle;fontFamily=Helvetica;fontSize=11;fontColor=default;labelBackgroundColor=default;endArrow=none;endFill=0;" edge="1" parent="1" source="1aYPySXUmk-SA74niEho-17" target="1aYPySXUmk-SA74niEho-13">
          <mxGeometry relative="1" as="geometry" />
        </mxCell>
        <mxCell id="1aYPySXUmk-SA74niEho-22" value="n" style="edgeLabel;html=1;align=center;verticalAlign=middle;resizable=0;points=[];fontFamily=Helvetica;fontSize=11;fontColor=default;labelBackgroundColor=default;" vertex="1" connectable="0" parent="1aYPySXUmk-SA74niEho-14">
          <mxGeometry x="0.6571" relative="1" as="geometry">
            <mxPoint y="-8" as="offset" />
          </mxGeometry>
        </mxCell>
        <mxCell id="1aYPySXUmk-SA74niEho-12" value="WebsiteOwner" style="rounded=0;whiteSpace=wrap;html=1;fontFamily=Helvetica;fontSize=11;labelBackgroundColor=none;fillColor=#f8cecc;strokeColor=#b85450;" vertex="1" parent="1">
          <mxGeometry x="110" y="384" width="120" height="60" as="geometry" />
        </mxCell>
        <mxCell id="1aYPySXUmk-SA74niEho-15" style="edgeStyle=orthogonalEdgeStyle;shape=connector;rounded=0;orthogonalLoop=1;jettySize=auto;html=1;entryX=0;entryY=0.5;entryDx=0;entryDy=0;strokeColor=default;align=center;verticalAlign=middle;fontFamily=Helvetica;fontSize=11;fontColor=default;labelBackgroundColor=default;endArrow=none;endFill=0;" edge="1" parent="1" source="1aYPySXUmk-SA74niEho-18" target="1aYPySXUmk-SA74niEho-11">
          <mxGeometry relative="1" as="geometry" />
        </mxCell>
        <mxCell id="1aYPySXUmk-SA74niEho-24" value="1" style="edgeLabel;html=1;align=center;verticalAlign=middle;resizable=0;points=[];fontFamily=Helvetica;fontSize=11;fontColor=default;labelBackgroundColor=default;" vertex="1" connectable="0" parent="1aYPySXUmk-SA74niEho-15">
          <mxGeometry x="0.6182" relative="1" as="geometry">
            <mxPoint y="-8" as="offset" />
          </mxGeometry>
        </mxCell>
        <mxCell id="1aYPySXUmk-SA74niEho-13" value="Chatbot" style="rounded=0;whiteSpace=wrap;html=1;fontFamily=Helvetica;fontSize=11;labelBackgroundColor=none;fillColor=#f8cecc;strokeColor=#b85450;" vertex="1" parent="1">
          <mxGeometry x="525" y="384" width="120" height="60" as="geometry" />
        </mxCell>
        <mxCell id="1aYPySXUmk-SA74niEho-19" value="" style="edgeStyle=orthogonalEdgeStyle;shape=connector;rounded=0;orthogonalLoop=1;jettySize=auto;html=1;entryX=0;entryY=0.5;entryDx=0;entryDy=0;strokeColor=default;align=center;verticalAlign=middle;fontFamily=Helvetica;fontSize=11;fontColor=default;labelBackgroundColor=default;endArrow=none;endFill=0;" edge="1" parent="1" source="1aYPySXUmk-SA74niEho-12" target="1aYPySXUmk-SA74niEho-17">
          <mxGeometry relative="1" as="geometry">
            <mxPoint x="230" y="414" as="sourcePoint" />
            <mxPoint x="525" y="414" as="targetPoint" />
          </mxGeometry>
        </mxCell>
        <mxCell id="1aYPySXUmk-SA74niEho-21" value="1" style="edgeLabel;html=1;align=center;verticalAlign=middle;resizable=0;points=[];fontFamily=Helvetica;fontSize=11;fontColor=default;labelBackgroundColor=default;" vertex="1" connectable="0" parent="1aYPySXUmk-SA74niEho-19">
          <mxGeometry x="-0.6727" y="2" relative="1" as="geometry">
            <mxPoint y="-6" as="offset" />
          </mxGeometry>
        </mxCell>
        <mxCell id="1aYPySXUmk-SA74niEho-17" value="besitzt" style="rhombus;whiteSpace=wrap;html=1;fontFamily=Helvetica;fontSize=11;labelBackgroundColor=none;fillColor=#fff2cc;strokeColor=#d6b656;" vertex="1" parent="1">
          <mxGeometry x="340" y="386" width="80" height="56" as="geometry" />
        </mxCell>
        <mxCell id="1aYPySXUmk-SA74niEho-20" value="" style="edgeStyle=orthogonalEdgeStyle;shape=connector;rounded=0;orthogonalLoop=1;jettySize=auto;html=1;entryX=0;entryY=0.5;entryDx=0;entryDy=0;strokeColor=default;align=center;verticalAlign=middle;fontFamily=Helvetica;fontSize=11;fontColor=default;labelBackgroundColor=default;endArrow=none;endFill=0;" edge="1" parent="1" source="1aYPySXUmk-SA74niEho-13" target="1aYPySXUmk-SA74niEho-18">
          <mxGeometry relative="1" as="geometry">
            <mxPoint x="645" y="414" as="sourcePoint" />
            <mxPoint x="940" y="414" as="targetPoint" />
          </mxGeometry>
        </mxCell>
        <mxCell id="1aYPySXUmk-SA74niEho-23" value="1" style="edgeLabel;html=1;align=center;verticalAlign=middle;resizable=0;points=[];fontFamily=Helvetica;fontSize=11;fontColor=default;labelBackgroundColor=default;" vertex="1" connectable="0" parent="1aYPySXUmk-SA74niEho-20">
          <mxGeometry x="-0.6571" y="2" relative="1" as="geometry">
            <mxPoint y="-6" as="offset" />
          </mxGeometry>
        </mxCell>
        <mxCell id="1aYPySXUmk-SA74niEho-18" value="hat" style="rhombus;whiteSpace=wrap;html=1;fontFamily=Helvetica;fontSize=11;labelBackgroundColor=none;fillColor=#fff2cc;strokeColor=#d6b656;" vertex="1" parent="1">
          <mxGeometry x="750" y="386" width="80" height="56" as="geometry" />
        </mxCell>
        <mxCell id="1aYPySXUmk-SA74niEho-37" style="edgeStyle=orthogonalEdgeStyle;shape=connector;rounded=0;orthogonalLoop=1;jettySize=auto;html=1;entryX=0.25;entryY=0;entryDx=0;entryDy=0;strokeColor=default;align=center;verticalAlign=middle;fontFamily=Helvetica;fontSize=11;fontColor=default;labelBackgroundColor=default;endArrow=none;endFill=0;" edge="1" parent="1" source="1aYPySXUmk-SA74niEho-25" target="1aYPySXUmk-SA74niEho-13">
          <mxGeometry relative="1" as="geometry" />
        </mxCell>
        <mxCell id="1aYPySXUmk-SA74niEho-25" value="&lt;u&gt;id&lt;/u&gt;" style="rounded=1;whiteSpace=wrap;html=1;fontFamily=Helvetica;fontSize=11;fontColor=#333333;labelBackgroundColor=none;fillColor=#f5f5f5;strokeColor=#666666;" vertex="1" parent="1">
          <mxGeometry x="430" y="320" width="110" height="30" as="geometry" />
        </mxCell>
        <mxCell id="1aYPySXUmk-SA74niEho-46" style="edgeStyle=orthogonalEdgeStyle;shape=connector;rounded=0;orthogonalLoop=1;jettySize=auto;html=1;entryX=0.25;entryY=0;entryDx=0;entryDy=0;strokeColor=default;align=center;verticalAlign=middle;fontFamily=Helvetica;fontSize=11;fontColor=default;labelBackgroundColor=default;endArrow=none;endFill=0;" edge="1" parent="1" source="1aYPySXUmk-SA74niEho-26" target="1aYPySXUmk-SA74niEho-12">
          <mxGeometry relative="1" as="geometry" />
        </mxCell>
        <mxCell id="1aYPySXUmk-SA74niEho-26" value="&lt;u&gt;id&lt;/u&gt;" style="rounded=1;whiteSpace=wrap;html=1;fontFamily=Helvetica;fontSize=11;fontColor=#333333;labelBackgroundColor=none;fillColor=#f5f5f5;strokeColor=#666666;" vertex="1" parent="1">
          <mxGeometry x="10" y="320" width="110" height="30" as="geometry" />
        </mxCell>
        <mxCell id="1aYPySXUmk-SA74niEho-41" style="edgeStyle=orthogonalEdgeStyle;shape=connector;rounded=0;orthogonalLoop=1;jettySize=auto;html=1;entryX=0.5;entryY=1;entryDx=0;entryDy=0;strokeColor=default;align=center;verticalAlign=middle;fontFamily=Helvetica;fontSize=11;fontColor=default;labelBackgroundColor=default;endArrow=none;endFill=0;" edge="1" parent="1" source="1aYPySXUmk-SA74niEho-27" target="1aYPySXUmk-SA74niEho-11">
          <mxGeometry relative="1" as="geometry" />
        </mxCell>
        <mxCell id="1aYPySXUmk-SA74niEho-27" value="&lt;u&gt;id&lt;/u&gt;" style="rounded=1;whiteSpace=wrap;html=1;fontFamily=Helvetica;fontSize=11;fontColor=#333333;labelBackgroundColor=none;fillColor=#f5f5f5;strokeColor=#666666;" vertex="1" parent="1">
          <mxGeometry x="945" y="470" width="110" height="30" as="geometry" />
        </mxCell>
        <mxCell id="1aYPySXUmk-SA74niEho-45" style="edgeStyle=orthogonalEdgeStyle;shape=connector;rounded=0;orthogonalLoop=1;jettySize=auto;html=1;entryX=0.75;entryY=0;entryDx=0;entryDy=0;strokeColor=default;align=center;verticalAlign=middle;fontFamily=Helvetica;fontSize=11;fontColor=default;labelBackgroundColor=default;endArrow=none;endFill=0;" edge="1" parent="1" source="1aYPySXUmk-SA74niEho-28" target="1aYPySXUmk-SA74niEho-12">
          <mxGeometry relative="1" as="geometry" />
        </mxCell>
        <mxCell id="1aYPySXUmk-SA74niEho-28" value="firstName" style="rounded=1;whiteSpace=wrap;html=1;fontFamily=Helvetica;fontSize=11;fontColor=#333333;labelBackgroundColor=none;fillColor=#f5f5f5;strokeColor=#666666;" vertex="1" parent="1">
          <mxGeometry x="220" y="320" width="110" height="30" as="geometry" />
        </mxCell>
        <mxCell id="1aYPySXUmk-SA74niEho-44" style="edgeStyle=orthogonalEdgeStyle;shape=connector;rounded=0;orthogonalLoop=1;jettySize=auto;html=1;entryX=0.25;entryY=1;entryDx=0;entryDy=0;strokeColor=default;align=center;verticalAlign=middle;fontFamily=Helvetica;fontSize=11;fontColor=default;labelBackgroundColor=default;endArrow=none;endFill=0;" edge="1" parent="1" source="1aYPySXUmk-SA74niEho-29" target="1aYPySXUmk-SA74niEho-12">
          <mxGeometry relative="1" as="geometry" />
        </mxCell>
        <mxCell id="1aYPySXUmk-SA74niEho-29" value="lastName" style="rounded=1;whiteSpace=wrap;html=1;fontFamily=Helvetica;fontSize=11;fontColor=#333333;labelBackgroundColor=none;fillColor=#f5f5f5;strokeColor=#666666;" vertex="1" parent="1">
          <mxGeometry x="10" y="470" width="110" height="30" as="geometry" />
        </mxCell>
        <mxCell id="1aYPySXUmk-SA74niEho-43" style="edgeStyle=orthogonalEdgeStyle;shape=connector;rounded=0;orthogonalLoop=1;jettySize=auto;html=1;entryX=0.75;entryY=1;entryDx=0;entryDy=0;strokeColor=default;align=center;verticalAlign=middle;fontFamily=Helvetica;fontSize=11;fontColor=default;labelBackgroundColor=default;endArrow=none;endFill=0;" edge="1" parent="1" source="1aYPySXUmk-SA74niEho-30" target="1aYPySXUmk-SA74niEho-12">
          <mxGeometry relative="1" as="geometry" />
        </mxCell>
        <mxCell id="1aYPySXUmk-SA74niEho-30" value="website" style="rounded=1;whiteSpace=wrap;html=1;fontFamily=Helvetica;fontSize=11;fontColor=#333333;labelBackgroundColor=none;fillColor=#f5f5f5;strokeColor=#666666;" vertex="1" parent="1">
          <mxGeometry x="220" y="470" width="110" height="30" as="geometry" />
        </mxCell>
        <mxCell id="1aYPySXUmk-SA74niEho-39" style="edgeStyle=orthogonalEdgeStyle;shape=connector;rounded=0;orthogonalLoop=1;jettySize=auto;html=1;entryX=0.25;entryY=1;entryDx=0;entryDy=0;strokeColor=default;align=center;verticalAlign=middle;fontFamily=Helvetica;fontSize=11;fontColor=default;labelBackgroundColor=default;endArrow=none;endFill=0;" edge="1" parent="1" source="1aYPySXUmk-SA74niEho-31" target="1aYPySXUmk-SA74niEho-13">
          <mxGeometry relative="1" as="geometry" />
        </mxCell>
        <mxCell id="1aYPySXUmk-SA74niEho-31" value="name" style="rounded=1;whiteSpace=wrap;html=1;fontFamily=Helvetica;fontSize=11;fontColor=#333333;labelBackgroundColor=none;fillColor=#f5f5f5;strokeColor=#666666;" vertex="1" parent="1">
          <mxGeometry x="430" y="470" width="110" height="30" as="geometry" />
        </mxCell>
        <mxCell id="1aYPySXUmk-SA74niEho-38" style="edgeStyle=orthogonalEdgeStyle;shape=connector;rounded=0;orthogonalLoop=1;jettySize=auto;html=1;entryX=0.75;entryY=0;entryDx=0;entryDy=0;strokeColor=default;align=center;verticalAlign=middle;fontFamily=Helvetica;fontSize=11;fontColor=default;labelBackgroundColor=default;endArrow=none;endFill=0;" edge="1" parent="1" source="1aYPySXUmk-SA74niEho-32" target="1aYPySXUmk-SA74niEho-13">
          <mxGeometry relative="1" as="geometry" />
        </mxCell>
        <mxCell id="1aYPySXUmk-SA74niEho-32" value="promptID" style="rounded=1;whiteSpace=wrap;html=1;fontFamily=Helvetica;fontSize=11;fontColor=#333333;labelBackgroundColor=none;fillColor=#f5f5f5;strokeColor=#666666;fontStyle=2" vertex="1" parent="1">
          <mxGeometry x="630" y="320" width="110" height="30" as="geometry" />
        </mxCell>
        <mxCell id="1aYPySXUmk-SA74niEho-40" style="edgeStyle=orthogonalEdgeStyle;shape=connector;rounded=0;orthogonalLoop=1;jettySize=auto;html=1;entryX=0.75;entryY=1;entryDx=0;entryDy=0;strokeColor=default;align=center;verticalAlign=middle;fontFamily=Helvetica;fontSize=11;fontColor=default;labelBackgroundColor=default;endArrow=none;endFill=0;" edge="1" parent="1" source="1aYPySXUmk-SA74niEho-33" target="1aYPySXUmk-SA74niEho-13">
          <mxGeometry relative="1" as="geometry" />
        </mxCell>
        <mxCell id="1aYPySXUmk-SA74niEho-33" value="websiteOwnerID" style="rounded=1;whiteSpace=wrap;html=1;fontFamily=Helvetica;fontSize=11;fontColor=#333333;labelBackgroundColor=none;fillColor=#f5f5f5;strokeColor=#666666;fontStyle=2" vertex="1" parent="1">
          <mxGeometry x="630" y="470" width="110" height="30" as="geometry" />
        </mxCell>
        <mxCell id="1aYPySXUmk-SA74niEho-42" style="edgeStyle=orthogonalEdgeStyle;shape=connector;rounded=0;orthogonalLoop=1;jettySize=auto;html=1;entryX=0.5;entryY=0;entryDx=0;entryDy=0;strokeColor=default;align=center;verticalAlign=middle;fontFamily=Helvetica;fontSize=11;fontColor=default;labelBackgroundColor=default;endArrow=none;endFill=0;" edge="1" parent="1" source="1aYPySXUmk-SA74niEho-34" target="1aYPySXUmk-SA74niEho-11">
          <mxGeometry relative="1" as="geometry" />
        </mxCell>
        <mxCell id="1aYPySXUmk-SA74niEho-34" value="prompt" style="rounded=1;whiteSpace=wrap;html=1;fontFamily=Helvetica;fontSize=11;fontColor=#333333;labelBackgroundColor=none;fillColor=#f5f5f5;strokeColor=#666666;" vertex="1" parent="1">
          <mxGeometry x="945" y="320" width="110" height="30" as="geometry" />
        </mxCell>
      </root>
    </mxGraphModel>
  </diagram>
</mxfile>
